<svg xmlns="http://www.w3.org/2000/svg" viewBox="0 0 64 64" role="img" aria-labelledby="title description">
  <title id="title">ReDevOps Lab</title>
  <desc id="description">Repository branch and feedback loop forming an RD monogram</desc>
  <rect x="2" y="2" width="60" height="60" rx="14" fill="#071018" stroke="#1f3344" stroke-width="2"/>
  <path d="M18 45V18h11c7 0 11 3.5 11 9s-4 9-11 9H18" fill="none" stroke="#22c55e" stroke-width="5" stroke-linecap="round" stroke-linejoin="round"/>
  <path d="M29 36 42 47" fill="none" stroke="#38bdf8" stroke-width="5" stroke-linecap="round"/>
  <path d="M43 17c5 3.5 8 9 8 15.5C51 43 42.5 51 32 51" fill="none" stroke="#38bdf8" stroke-width="3" stroke-linecap="round"/>
  <path d="m35 47-4 4 5 2" fill="none" stroke="#38bdf8" stroke-width="3" stroke-linecap="round" stroke-linejoin="round"/>
  <circle cx="18" cy="18" r="3.5" fill="#071018" stroke="#22c55e" stroke-width="2"/>
  <circle cx="18" cy="36" r="3.5" fill="#071018" stroke="#22c55e" stroke-width="2"/>
  <circle cx="42" cy="47" r="3.5" fill="#071018" stroke="#38bdf8" stroke-width="2"/>
  <path d="m25 24 3 3-3 3m5 0h4" fill="none" stroke="#e5e7eb" stroke-width="2.25" stroke-linecap="round" stroke-linejoin="round"/>
</svg>
